# xmcd CD database file
#
# Track frame offsets:
#	150
#	14615
#	27042
#	43520
#
# Disc length: 865 seconds
#
# Revision: 0
# Processed by: cddbd v1.4PL0 Copyright (c) Steve Scherf et al.
# Submitted via: CDex 1.50Beta7
#
DISCID=26035f04
DTITLE=Troy Cassar Daley - Bonus Disc
DYEAR=1900
DGENRE=Country
TTITLE0=The Biggest Disappointment
TTITLE1=You Can't Take The Country Out Of The Boy
TTITLE2=You'll Never Know Til You Try
TTITLE3=Back Home Again
EXTD=
EXTT0=
EXTT1=
EXTT2=
EXTT3=
PLAYORDER=
